<?xml version="1.0" encoding="UTF-8" standalone="no"?>
<svg
	xmlns:dc="http://purl.org/dc/elements/1.1/"
	xmlns:cc="http://creativecommons.org/ns#"
	xmlns:rdf="http://www.w3.org/1999/02/22-rdf-syntax-ns#"
	xmlns:svg="http://www.w3.org/2000/svg"
	xmlns="http://www.w3.org/2000/svg"
	id="svg2"
	viewBox="0 286 846 324"
	height="160"
	width="580"
	version="1.1">
	<metadata
		id="metadata22">
		<rdf:RDF>
			<cc:Work
				rdf:about="">
				<dc:format>image/svg+xml</dc:format>
				<dc:type
					rdf:resource="http://purl.org/dc/dcmitype/StillImage"/>
			</cc:Work>
		</rdf:RDF>
	</metadata>
	<defs
		id="defs20"/>
	<path
		id="path6"
		style="fill:#fff;fill-rule:evenodd"
		d="m 446.7334,369.9376 c 0,10.3306 -4.1003,19.1169 -12.2476,26.4123 -8.1474,7.2954 -17.9456,10.9164 -29.3412,10.9164 -11.4489,0 -21.247,-3.621 -29.3412,-10.9164 -8.0941,-7.2954 -12.1411,-16.0817 -12.1411,-26.3591 0,-2.3963 0.426,-5.5381 1.2248,-9.3721 -4.6329,-0.4261 -7.6149,-0.639 -8.8397,-0.639 -15.8155,0 -23.6965,6.6031 -23.6965,19.8092 0,6.7629 4.6328,21.8861 13.8984,45.4229 9.2656,23.4836 13.8985,41.9083 13.8985,55.221 0,28.4891 -15.7622,49.8427 -47.2867,64.1139 -23.4836,10.4904 -51.0142,15.7622 -82.5386,15.7622 -28.8087,0 -54.3158,-3.9938 -76.5746,-12.0347 -31.3114,-11.2358 -46.9671,-28.4891 -46.9671,-51.8129 0,-33.9208 28.8086,-50.8526 86.4791,-50.8545 l 86.6446,-0.003 c 4.136,8.0795 6.7905,16.3846 8.859,24.9242 l -70.955,0 c -11.6085,0 -21.7395,1.9954 -30.3528,6.0705 -11.1959,5.2971 -16.774,13.153 -16.774,23.5369 0,11.7684 7.7213,20.9808 23.2173,27.6371 11.9814,5.0588 24.7615,7.6148 38.3937,7.6148 17.2533,0 31.631,-3.7807 43.1864,-11.3956 13.4192,-8.7331 20.1288,-21.247 20.1288,-37.595 0,-11.1827 -4.2601,-27.3177 -12.7802,-48.2984 -8.5201,-21.0341 -12.7801,-37.3287 -12.7801,-48.9907 0,-37.9678 32.2698,-56.925 96.863,-56.925 l 38.5003,0 c 10.5968,0 20.0755,3.5678 28.3826,10.7566 8.6266,7.6149 12.9399,16.6143 12.9399,26.9982 z"/>
	<path
		id="path8"
		style="fill:#fff;fill-rule:evenodd"
		d="m -27.8246,327.7575 c 0,5.6679 -0.2298,14.2208 -0.6893,25.6075 -0.4596,11.3869 -0.6894,19.9653 -0.6894,25.6842 l 0,49.3004 c 0,1.3276 -0.7149,2.017 -2.1701,2.017 -1.2,0 -2.9872,0.051 -5.4126,0.1531 -2.4254,0.0766 -4.2382,0.1277 -5.4125,0.1277 -1.3022,0 -3.2426,-0.0766 -5.8466,-0.2808 -2.5787,-0.2043 -4.5191,-0.3064 -5.8211,-0.3064 -0.8936,0 -1.966,-0.817 -3.217,-2.4765 -3.5998,-4.8254 -11.6676,-15.5484 -24.2544,-32.118 -3.4466,-4.6466 -8.6805,-11.4634 -15.7271,-20.5013 -0.2043,-0.2809 -0.5617,-0.5872 -1.1234,-0.8936 -0.3829,0.3574 -0.5617,0.8936 -0.5617,1.6594 0,5.7701 0.1533,14.4506 0.4596,26.0161 0.3064,11.54 0.4595,20.2205 0.4595,26.0161 0,1.7361 -0.6637,2.6042 -2.0168,2.6042 l -25.8375,0 c -1.4551,0 -2.1701,-0.766 -2.1701,-2.3233 0,-5.3871 0.2554,-13.506 0.766,-24.3822 0.5107,-10.8506 0.7659,-19.0206 0.7659,-24.4331 0,-5.7444 -0.2297,-14.3228 -0.6893,-25.7352 -0.4596,-11.4124 -0.6893,-19.9652 -0.6893,-25.6587 0,-1.0978 0.9701,-1.634 2.9104,-1.634 2.9106,0 6.4594,-0.1787 10.6976,-0.5616 0.9957,-0.1021 2.9616,-0.4086 5.9232,-0.9447 2.4765,-0.4341 4.4424,-0.6382 5.8977,-0.6382 0.6127,0 1.5318,0.8424 2.7828,2.5275 l 27.9564,38.0667 c 2.5021,3.4466 6.2807,8.4507 11.3358,15.0632 1.251,1.532 2.3232,2.2978 3.2169,2.2978 0.5361,0 0.8169,-1.9403 0.8169,-5.821 0,-5.2083 -0.2808,-13.0718 -0.8425,-23.5651 -0.5616,-10.4932 -0.8424,-18.3823 -0.8424,-23.6672 0,-1.8383 0.5105,-2.7574 1.5573,-2.7574 2.9871,0 7.5061,-0.1277 13.5315,-0.383 6.0253,-0.2552 10.5187,-0.3829 13.5058,-0.3829 0.9446,0 1.4298,0.7659 1.4298,2.3233 z m 43.0708,12.6889 c 0,8.6805 -4.902,13.0208 -14.6803,13.0208 -4.1871,0 -7.6593,-1.0978 -10.3911,-3.2935 -2.9871,-2.3999 -4.4935,-5.6423 -4.4935,-9.7273 0,-3.8807 1.5574,-7.0976 4.6466,-9.5742 2.834,-2.2977 6.2552,-3.4466 10.238,-3.4466 3.9062,0 7.2764,1.1744 10.1102,3.5233 3.0382,2.4765 4.5701,5.6679 4.5701,9.4975 z m -1.9914,55.581 c 0,3.6509 0.0766,9.089 0.2298,16.2888 0.1531,7.1997 0.2297,12.6122 0.2297,16.1866 0,1.0468 -0.6127,1.685 -1.8637,1.8638 -1.6851,0.3064 -5.5148,0.4595 -11.438,0.4595 -5.9742,0 -9.8038,-0.1531 -11.4888,-0.4595 -1.0979,-0.1788 -1.7617,-0.5106 -2.017,-0.9702 -0.1021,-0.2042 -0.1532,-0.9447 -0.1532,-2.2467 0,-3.4212 0.0766,-8.604 0.2298,-15.5229 0.1532,-6.8934 0.2298,-12.1016 0.2298,-15.5994 0,-14.1442 -0.5617,-25.4289 -1.6851,-33.8031 -0.1021,-0.7914 -0.1531,-1.3276 -0.1531,-1.5829 0,-0.9957 0.6637,-1.4808 2.0168,-1.4808 1.4043,0 3.5233,0.1533 6.4083,0.4341 2.8596,0.3064 5.0297,0.4595 6.4849,0.4595 1.4298,0 3.5999,-0.1276 6.5104,-0.3829 2.8851,-0.2298 5.0552,-0.3574 6.5104,-0.3574 1.2,0 1.7872,0.485 1.7872,1.4808 0,0.2041 -0.051,0.6893 -0.1531,1.4296 -1.1234,9.7273 -1.6851,20.9865 -1.6851,33.8031 z m 88.8223,32.169 c 0,1.3532 -0.6893,2.1192 -2.0935,2.3233 -1.4042,0.2043 -5.0551,0.3064 -10.9273,0.3064 -6.3061,0 -10.1868,-0.1531 -11.6931,-0.4595 -1.4808,-0.2808 -2.2468,-1.3021 -2.2468,-3.0638 0,-2.3488 0.0766,-5.872 0.2298,-10.6209 0.1531,-4.7231 0.2297,-8.2976 0.2297,-10.6975 0,-1.8382 -0.051,-4.5955 -0.1531,-8.272 -0.1021,-3.6509 -0.1533,-6.4082 -0.1533,-8.2721 0,-6.8167 -2.9616,-10.2378 -8.9103,-10.2378 -1.9403,0 -4.2126,0.8425 -6.8167,2.553 -2.7829,1.8894 -4.1871,3.7531 -4.1871,5.5913 l 0,40.4156 c 0,1.634 -0.7659,2.5532 -2.3233,2.7573 -1.7362,0.2043 -5.285,0.3064 -10.672,0.3064 -5.821,0 -9.5996,-0.1531 -11.3357,-0.4595 -1.5574,-0.2298 -2.3234,-1.0723 -2.3234,-2.451 0,-3.9063 0.0256,-9.7529 0.0766,-17.5909 0.0512,-7.8124 0.0767,-13.7101 0.0767,-17.6419 0,-12.4081 -0.9703,-22.1608 -2.9106,-29.2584 -0.1022,-0.4341 -0.1532,-0.8171 -0.1532,-1.1234 0,-0.7915 0.383,-1.3277 1.1234,-1.6341 3.1148,-0.3574 7.3019,-0.8935 12.5101,-1.6594 7.8891,-1.5575 12.3315,-2.3233 13.3272,-2.3233 0.5617,0 0.9958,1.6849 1.3022,5.0551 0.3063,3.37 0.7403,5.0551 1.302,5.0551 -0.5362,0 2.1446,-1.7361 8.0422,-5.2084 5.9232,-3.4721 11.1061,-5.2082 15.5485,-5.2082 6.3316,0 11.6165,1.5063 15.8546,4.4934 4.7488,3.4466 7.1232,8.221 7.1232,14.3739 l 0,23.846 c 0,3.2424 0.0256,8.0933 0.0767,14.5526 0.051,6.4594 0.0765,11.3103 0.0765,14.5527 z m 42.5602,-88.5159 c 0,8.3742 -4.9275,12.5613 -14.8079,12.5613 -4.2638,0 -7.6849,-1.0213 -10.3401,-3.0638 -2.9361,-2.2467 -4.4169,-5.4126 -4.4169,-9.4975 0,-3.8297 1.5319,-6.97 4.57,-9.421 2.834,-2.1956 6.2296,-3.2935 10.187,-3.2935 3.9317,0 7.3274,1.0979 10.1613,3.2935 3.0893,2.4 4.6466,5.5403 4.6466,9.421 z m -0.6127,74.8824 c 0,10.34 -1.7616,18.1014 -5.3104,23.2843 -3.9318,5.7444 -10.723,9.6507 -20.3738,11.6931 -2.885,0.5872 -5.9742,0.8936 -9.3189,0.8936 -1.9913,0 -2.9871,-4.3147 -2.9871,-12.9442 0,-4.3658 0.6384,-6.7146 1.9404,-7.1231 3.9318,-1.2 6.4339,-2.3744 7.4551,-3.5233 1.2509,-1.3787 1.9659,-4.1615 2.1702,-8.2976 0.1531,-2.7062 0.2297,-9.5741 0.2297,-20.6546 0,-13.174 -0.8936,-25.1225 -2.6808,-35.8455 -0.051,-0.434 -0.0766,-0.7914 -0.0766,-1.0468 0,-1.251 0.6893,-1.8637 2.0936,-1.8637 4.9785,0 8.8337,-0.1531 11.5655,-0.4596 7.9657,-0.9191 12.306,-1.3786 13.0463,-1.3786 1.0469,0 1.6596,0.6382 1.7872,1.9403 0.3064,2.3999 0.4596,12.1527 0.4596,29.284 l 0,26.0417 z m 88.2096,-21.5737 c 0,3.8296 0.2298,9.5486 0.6893,17.1057 0.4596,7.5828 0.6893,13.2762 0.6893,17.0548 0,1.9913 -0.8681,3.0637 -2.6296,3.2169 -6.1785,0.4595 -13.2761,0.6638 -21.2673,0.6638 -0.9448,0 -1.583,-1.4298 -1.9149,-4.2638 -0.3064,-2.8594 -0.6893,-4.3146 -1.1489,-4.3657 -0.4085,0.2042 -0.9191,0.6128 -1.5574,1.251 -5.5913,5.5913 -11.5655,8.3997 -17.9483,8.3997 -9.7272,0 -17.7696,-3.8297 -24.1523,-11.5145 -6.0252,-7.1742 -9.038,-15.7526 -9.038,-25.7353 0,-11.5143 3.1148,-20.7822 9.3444,-27.8031 6.4594,-7.2764 15.3441,-10.9273 26.6033,-10.9273 7.7869,0 13.9654,2.7318 18.5099,8.1954 0.2043,0.2553 0.3831,0.383 0.5362,0.383 0.4596,0 0.9958,-1.1999 1.5829,-3.5998 0.5872,-2.4 1.2766,-3.6 2.0935,-3.6 1.8383,0 5.3361,0.5362 10.5188,1.583 4.902,0.9957 8.4508,1.8382 10.5699,2.553 0.7403,0.3064 1.1234,0.6894 1.1234,1.2 0,0.2043 -0.0767,0.7149 -0.2298,1.5575 -1.583,9.0379 -2.3744,18.5864 -2.3744,28.6457 z m -24.0503,0.4085 c 0,-4.2382 -1.3275,-7.7359 -4.0083,-10.4933 -2.6552,-2.7828 -6.1275,-4.1615 -10.4166,-4.1615 -4.2893,0 -7.7614,1.3787 -10.4166,4.1105 -2.6553,2.7573 -3.9574,6.2551 -3.9574,10.5443 0,4.0595 1.3787,7.5316 4.1871,10.4166 2.7829,2.8851 6.1785,4.3403 10.1869,4.3403 4.2381,0 7.6848,-1.3787 10.3911,-4.1615 2.6807,-2.7574 4.0338,-6.2807 4.0338,-10.5954 z"/>
	<path
		id="path10"
		style="fill:#fff;fill-rule:evenodd"
		d="m 604.6432,515.5691 c 0,8.3003 -2.6181,15.0523 -7.8733,20.2375 -5.2361,5.1666 -12.1276,7.7593 -20.6554,7.7593 -8.2584,0 -15.0729,-2.5553 -20.4053,-7.666 -5.3322,-5.092 -8.008,-11.6576 -8.008,-19.678 0,-8.4679 2.5603,-15.3319 7.6615,-20.5918 5.1206,-5.2786 12.0314,-7.9085 20.7518,-7.9085 8.4892,0 15.3807,2.5739 20.6362,7.7406 5.2552,5.1667 7.8925,11.8627 7.8925,20.1069 z m -18.4802,-0.0186 c 0,-2.8724 -0.924,-5.4091 -2.772,-7.6287 -1.8288,-2.2009 -4.235,-3.3014 -7.1611,-3.3014 -2.9838,0 -5.4284,1.1377 -7.3343,3.3947 -1.8095,2.1076 -2.7142,4.6256 -2.7142,7.5354 0,2.9656 0.9047,5.5023 2.7142,7.6101 1.9059,2.2568 4.3505,3.3947 7.3343,3.3947 2.9261,0 5.3709,-1.1379 7.2766,-3.3947 1.771,-2.1078 2.6565,-4.6445 2.6565,-7.6101 z m 62.6977,-7.1997 c 0,1.4362 -0.8086,2.145 -2.4256,2.145 -0.7122,0 -1.7517,-0.056 -3.1185,-0.1493 -1.3667,-0.0932 -2.387,-0.1305 -3.0607,-0.1305 -3.0993,0 -5.2169,0.4664 -6.3333,1.4176 -1.1358,0.9512 -1.694,2.8724 -1.694,5.7448 0,1.5668 0.0192,3.9543 0.0769,7.1437 0.0578,3.1895 0.0771,5.577 0.0771,7.1438 0,1.0631 0.077,2.6299 0.2117,4.7376 0.1347,2.089 0.2118,3.6558 0.2118,4.6817 0,0.8767 -0.6161,1.3616 -1.8674,1.4735 -1.7901,0.1492 -4.5622,0.2238 -8.2774,0.2238 -3.5614,0 -6.4103,-0.1119 -8.5471,-0.3357 -1.2514,-0.1492 -1.8673,-0.746 -1.8673,-1.8093 0,-2.9096 0.0193,-7.2743 0.0577,-13.0751 0.0385,-5.8194 0.0578,-10.184 0.0578,-13.0938 0,-8.5613 -0.8085,-15.6118 -2.4255,-21.1327 -0.0769,-0.3357 -0.1155,-0.6156 -0.1155,-0.8208 0,-0.5595 0.2889,-0.9139 0.847,-1.1003 2.079,-0.2239 5.1206,-0.6156 9.1053,-1.2125 5.9676,-1.1378 9.0284,-1.6973 9.2208,-1.6973 0.6739,0 1.1166,1.1377 1.2898,3.4133 0.1924,2.2942 0.539,3.432 1.0203,3.432 -0.5198,0 1.0009,-0.9513 4.6007,-2.8724 3.5999,-1.9025 7.0648,-2.8538 10.3952,-2.8538 2.0981,0 3.1376,0.4289 3.1376,1.3056 0,1.0632 -0.1154,2.5554 -0.3464,4.4766 -0.231,2.089 -0.3658,3.5811 -0.4042,4.4764 0,1.0632 0.0192,2.4621 0.0577,4.2154 0.077,2.1451 0.1155,3.5625 0.1155,4.2527 z m 69.2812,-1.6041 c 0,8.0577 -4.081,14.1756 -12.2432,18.3536 -0.7506,0.3731 -1.1164,0.7462 -1.1164,1.1565 0,0.6156 1.7326,3.1895 5.236,7.7406 3.4843,4.5325 5.2362,6.92 5.2362,7.1438 0,0.9513 -4.9859,1.4175 -14.9383,1.4175 -3.8308,0 -6.0445,-0.4662 -6.6412,-1.3802 -1.5207,-2.4249 -3.8885,-5.9128 -7.084,-10.4639 -0.1926,-0.2238 -3.5421,-0.5035 -10.0294,-0.802 0,1.1377 0.0192,2.947 0.0578,5.4277 0.0384,2.4808 0.0576,4.3087 0.0576,5.5211 0,1.1005 -0.5581,1.6973 -1.6362,1.8092 -0.693,0.0747 -3.6767,0.1119 -8.9513,0.1119 -4.5623,0 -7.2187,-0.0746 -7.9887,-0.2238 -1.0203,-0.1865 -1.5208,-0.9326 -1.5208,-2.2383 l 0,-33.4431 c 0,-4.4952 -0.1733,-11.1913 -0.5197,-20.107 -0.3466,-8.9344 -0.5198,-15.6118 -0.5198,-20.0696 0,-0.8766 0.5004,-1.3243 1.5207,-1.3616 2.002,0 4.9859,-0.0374 8.9705,-0.112 1.0588,-0.0746 2.8876,-0.2797 5.4863,-0.6341 2.2908,-0.3171 4.1004,-0.485 5.4094,-0.485 0.5967,0 0.9048,0.5223 0.9048,1.5854 0,1.3804 -0.1157,3.2641 -0.3273,5.633 -0.2696,2.7605 -0.4043,4.663 -0.4428,5.6703 -0.3273,7.8339 -0.5005,13.9144 -0.5005,18.2043 0,1.0259 0.1348,1.5482 0.4043,1.5855 0.3273,-0.2239 0.7893,-0.6155 1.3474,-1.2124 4.8703,-4.9428 10.8187,-7.4048 17.8064,-7.4048 6.5643,0 11.7812,1.4548 15.6504,4.3646 4.2542,3.2454 6.3718,7.983 6.3718,14.2128 z m -22.4072,3.5626 c 0,-4.3832 -2.5602,-6.5842 -7.7,-6.5842 -2.2908,0 -4.7162,0.8393 -7.3151,2.4993 -2.772,1.7907 -4.158,3.7304 -4.158,5.8382 0,3.0216 0.4235,4.8309 1.2898,5.4464 0.6737,0.429 2.8297,0.6528 6.4681,0.6528 7.6037,0 11.4152,-2.6113 11.4152,-7.8525 z M 757.8742,498.26 c 0,0.3731 -0.2887,0.858 -0.847,1.4735 -1.0396,-0.2425 -2.0984,-0.373 -3.1377,-0.373 -2.2138,0 -4.0619,0.4663 -5.5633,1.4176 -1.7903,1.0817 -2.6951,2.6113 -2.6951,4.607 0,1.2684 0.9625,2.8911 2.8683,4.8496 2.8875,2.9656 4.6777,4.9427 5.3515,5.9686 1.9058,2.7605 2.8682,5.7449 2.8682,8.9158 0,1.8465 -0.3657,3.8236 -1.1163,5.894 -0.8664,2.2942 -1.9636,3.9729 -3.2726,5.036 -2.772,2.3316 -6.0061,4.29 -9.7213,5.8941 -4.0041,1.6787 -7.7001,2.518 -11.0688,2.518 -0.7508,0 -2.4449,-1.9772 -5.0628,-5.9313 -2.6373,-3.9543 -3.9464,-6.3604 -3.9464,-7.2371 0,-0.3171 0.2118,-0.5222 0.6161,-0.5968 2.6371,-0.4663 5.2745,-0.9513 7.9502,-1.4176 3.2918,-1.0258 4.9473,-2.7045 4.9473,-5.0361 0,-1.604 -0.9625,-3.4692 -2.8682,-5.5769 -3.4265,-3.6931 -5.1976,-5.633 -5.3516,-5.8568 -1.9057,-2.6113 -2.8683,-5.3905 -2.8683,-8.3001 0,-5.4651 2.8491,-10.1095 8.5664,-13.9331 5.1012,-3.3947 10.5683,-5.092 16.3818,-5.092 0.5968,0 2.079,1.9583 4.4276,5.894 2.3677,3.9356 3.542,6.2298 3.542,6.8826 z m 64.4494,4.5698 -0.1155,37.6959 c 0,1.2869 -0.5197,1.9957 -1.5785,2.1449 -1.1936,0.1493 -3.9462,0.2051 -8.2391,0.2051 -4.1387,0 -7.0263,-0.1304 -8.6433,-0.4289 -1.232,-0.2238 -1.8671,-1.0072 -1.8671,-2.3502 0,-3.1335 0.0576,-7.8525 0.1732,-14.1569 0.1154,-6.2857 0.1732,-11.0047 0.1732,-14.1382 0,-4.2714 -2.2331,-6.3977 -6.7183,-6.3977 -1.5015,0 -3.2725,0.5781 -5.3131,1.7533 -2.2137,1.2683 -3.3303,2.5926 -3.3303,3.9915 l 0,13.4854 c 0,1.7534 0.0386,4.3833 0.1156,7.9085 0.0771,3.5066 0.1155,6.1365 0.1155,7.8899 0,1.343 -0.5776,2.089 -1.7517,2.2382 -1.1551,0.1493 -4.4276,0.2239 -9.7984,0.2239 -3.0608,0 -5.2939,-0.1492 -6.6413,-0.4291 -1.3476,-0.2984 -2.0213,-0.9326 -2.0213,-1.9211 0,-2.8724 0.0192,-7.2184 0.0578,-12.9819 0.0384,-5.7822 0.0577,-10.1094 0.0577,-13.0005 0,-11.9187 -0.1347,-21.7856 -0.4042,-29.5822 -0.1156,-2.7232 -0.2118,-5.465 -0.2888,-8.2069 -0.1925,-3.1708 -0.539,-5.8754 -1.0396,-8.1323 -0.1154,-0.485 -0.1732,-0.8207 -0.1732,-1.0445 0,-0.541 0.2889,-0.9139 0.8471,-1.1005 1.1742,-0.3171 2.8875,-0.5222 5.1397,-0.5968 3.0031,-0.112 4.7547,-0.2053 5.2553,-0.2799 6.7954,-0.7834 10.2025,-1.175 10.2025,-1.175 0.597,0 0.9048,0.3916 0.9048,1.1564 0,1.1565 -0.077,2.7419 -0.231,4.7563 -0.1538,2.3502 -0.2309,3.9356 -0.2309,4.7749 -0.231,8.2442 -0.3465,14.7725 -0.3465,19.5474 0,0.7275 0.1925,1.1005 0.5582,1.1005 0.077,0 1.0395,-0.6341 2.8876,-1.9212 2.1752,-1.4921 4.2735,-2.6672 6.2755,-3.5438 2.9645,-1.2871 5.852,-1.9213 8.6241,-1.9213 4.8318,0 8.855,1.2125 12.089,3.6559 3.5036,2.6299 5.2553,6.2111 5.2553,10.7809 z m 63.3908,12.7393 c 0,8.3003 -2.6181,15.0523 -7.8733,20.2375 -5.2361,5.1666 -12.1276,7.7593 -20.6554,7.7593 -8.2583,0 -15.073,-2.5553 -20.4052,-7.666 -5.3323,-5.092 -8.0081,-11.6576 -8.0081,-19.678 0,-8.4679 2.5603,-15.3319 7.6616,-20.5918 5.1206,-5.2786 12.0313,-7.9085 20.7517,-7.9085 8.4892,0 15.3807,2.5739 20.6362,7.7406 5.2552,5.1667 7.8925,11.8627 7.8925,20.1069 z m -18.4802,-0.0186 c 0,-2.8724 -0.9239,-5.4091 -2.772,-7.6287 -1.8287,-2.2009 -4.2349,-3.3014 -7.1611,-3.3014 -2.9837,0 -5.4284,1.1377 -7.3343,3.3947 -1.8095,2.1076 -2.7142,4.6256 -2.7142,7.5354 0,2.9656 0.9047,5.5023 2.7142,7.6101 1.9059,2.2568 4.3506,3.3947 7.3343,3.3947 2.9262,0 5.3709,-1.1379 7.2766,-3.3947 1.771,-2.1078 2.6565,-4.6445 2.6565,-7.6101 z m 87.5304,0.6156 c 0,7.8151 -2.3678,14.2874 -7.1033,19.4167 -4.8895,5.3158 -11.2998,7.9831 -19.2308,7.9831 -2.9068,0 -6.0062,-0.6902 -9.3171,-2.0704 -3.2917,-1.3802 -4.8126,-2.0703 -4.5046,-2.0703 -0.4812,0 -0.7315,0.5409 -0.7315,1.6414 0,1.8465 0.0963,4.6257 0.2887,8.3561 0.1925,3.7118 0.2888,6.4909 0.2888,8.3561 0,1.1565 -0.6161,1.7346 -1.8672,1.7346 l -11.5116,0.056 c -2.5988,0 -4.2737,-0.0932 -5.0243,-0.2798 -1.1359,-0.2425 -1.6941,-0.9139 -1.6941,-2.0144 l 0.1155,-42.0418 c 0,-8.4867 -0.6544,-15.6304 -1.9635,-21.4686 -0.077,-0.3543 -0.1155,-0.6714 -0.1155,-0.9139 0,-0.5595 0.2309,-0.914 0.6738,-1.1004 1.4631,-0.541 4.2544,-1.1379 8.3931,-1.7533 4.0039,-0.6156 6.9107,-0.9327 8.7203,-0.9327 1.4631,0 2.3099,0.9327 2.5218,2.7978 0.2309,1.8839 0.5005,2.8165 0.8278,2.8165 -0.3659,0 1.2319,-0.9886 4.8124,-2.9843 3.5998,-1.9772 6.8531,-2.9657 9.7791,-2.9657 8.1428,0 14.6686,2.6113 19.5389,7.8152 4.7355,5.0361 7.1033,11.5829 7.1033,19.6221 z m -20.9056,-0.112 c 0,-2.9097 -0.924,-5.4651 -2.7528,-7.6473 -2.0021,-2.2942 -4.466,-3.4507 -7.4113,-3.4507 -3.0031,0 -5.4093,1.1565 -7.2188,3.4507 -1.5785,2.0703 -2.3678,4.6256 -2.3678,7.6473 0,3.115 0.8278,5.6889 2.4832,7.722 1.7711,2.2196 4.2159,3.3387 7.3344,3.3387 6.622,0 9.9331,-3.6931 9.9331,-11.0607 z"/>
	<path
		id="path12"
		style="fill:#fff;fill-rule:evenodd"
		d="m 565.2083,445.5703 413.4364,0.022 0.0109,25.4769 -427.816,-0.6605 -47.6112,86.3817 c -4.2127,7.4322 -10.6218,11.1333 -19.2578,11.1333 l -11.0732,0 0,-78.3552 -43.2097,67.5829 c -4.664,7.1916 -11.5246,10.7723 -20.6119,10.7723 l -12.5476,0 8.6151,-97.3818 -41.6249,-0.0494 c -0.9017,-7.221 -3.24,-17.005 -6.506,-24.7741 l 58.5993,-0.2468 c 4.7543,-0.0201 8.8652,1.0549 12.2467,3.2498 4.5921,2.9804 6.8907,7.673 6.8907,14.022 0,0.9328 -0.101,1.9218 -0.1805,2.9188 l -4.6402,58.1491 42.0061,-66.7102 c 3.0091,-4.7542 5.6871,-7.9739 8.0341,-9.6891 3.3099,-2.347 7.7934,-3.5205 13.5106,-3.5205 l 8.6659,0 0,78.2047 41.9999,-76.5259 21.0633,0 z"/>
	<path
		id="path14"
		style="fill:#fff;fill-rule:evenodd"
		d="m 959.0578,386.914 c 0.4914,0.5482 0.9448,0.6711 1.6673,1.0253 1.4297,0.7009 2.2241,1.2327 3.4007,2.0124 2.2614,1.4985 4.0952,3.0738 5.7903,4.892 2.7221,2.9198 6.5031,8.8066 7.3336,13.827 -0.003,-0.004 -2.1589,-5.4777 -2.6135,-6.385 -1.1548,-2.3048 -2.1624,-3.6184 -3.5943,-5.4128 -1.6227,-2.0338 -7.2218,-7.3556 -9.8752,-8.1557 -0.6477,-0.1765 -0.9772,-0.5904 -1.4764,-0.6532 l -0.3336,-0.0476 c 2.6037,1.2746 4.9654,2.8884 7.1509,4.6598 1.1806,0.957 5.6129,4.7247 5.4525,6.3442 -1.149,0.6519 -1.3495,0.8142 -2.4205,1.5467 -0.6319,0.4323 -0.0763,0.61 -0.5964,0.6542 -0.2295,-0.1501 -1.8206,-2.4308 -2.2651,-2.921 -0.9055,-0.9988 -1.5271,-1.6483 -2.5457,-2.5686 -0.5079,-0.4588 -5.7399,-4.3236 -6.2593,-3.8506 l 0.361,0.305 c 0.0343,0.0439 4.1325,2.6135 4.6469,3.018 0.8823,0.6937 3.4557,2.9152 3.8817,3.7259 0.212,0.1927 0.4003,0.4497 0.5964,0.6889 0.1338,0.1632 0.2313,0.262 0.3155,0.3527 0.2604,0.2803 0.1157,-0.004 0.2443,0.3742 l 0.4438,0.5708 0.0718,0.1225 c 0.002,-0.003 0.004,-0.005 0.006,-0.008 -1e-4,0.006 -1e-4,0.0126 -2e-4,0.0186 l 0.1483,0.2533 2.8291,5.0547 0.1917,0.6513 0.003,0.0604 0.1763,0.4287 0.1693,0.5568 0.1876,0.4788 -0.0486,0.0318 0.1885,0.4813 0.2402,1.0968 0.8213,5.0213 -0.1897,0.0215 -0.1244,-1.7667 -1.1267,0.2832 0.0699,3.13 0.0122,1.0348 c 0.9352,-0.0717 0.6223,0.0475 1.0816,0.2988 0.201,-0.8172 0.0716,-1.8511 0.1229,-2.7678 0.2161,0.4544 0.0339,3.027 -0.0502,3.6656 -0.1256,0.9535 -0.5205,2.5162 -0.6337,3.2073 l 0.0506,-0.6175 c -0.3502,0.0313 -1.0457,0.0541 -1.1668,0.1324 -1.4425,8.2183 -8.5199,14.0682 -12.5776,16.3368 -3.4199,1.912 -6.5279,3.037 -11.1937,3.5193 -7.0564,0.7294 -12.0473,-1.6455 -13.08,-1.6589 l -0.9628,1.1027 1.5877,0.6223 c 0.7902,0.2658 1.3308,0.4483 2.0632,0.5861 1.2738,0.2396 3.1053,0.5826 4.5533,0.7187 5.6366,0.53 12.7883,-0.8809 17.4912,-3.728 0.3634,-0.2199 2.7854,-1.8898 3.0025,-2.1981 0.783,-1.1117 0.5756,-0.5381 1.493,-1.1484 0.663,-0.441 1.1773,-1.1478 1.6315,-1.2143 -0.3243,1.0468 -4.3188,3.8114 -5.9365,4.6736 -5.6769,3.0259 -10.7309,4.4356 -17.4286,3.8994 -2.0919,-0.1675 -7.3533,-1.1201 -8.6666,-2.0351 l -0.1787,-0.0758 -2.7805,-1.3044 c -0.4608,-0.2548 -0.9063,-0.519 -1.3363,-0.7818 l -1.2728,-0.8054 -0.1198,-0.0729 -0.1344,-0.0388 -0.2498,-0.1658 -0.1514,-0.112 c -0.0848,-0.1489 -0.0989,-0.1175 -0.2608,-0.2444 -0.2182,-0.171 -0.1475,-0.1454 -0.3367,-0.2083 l -0.1449,-0.0786 -3.5222,-3.0375 0.1508,-0.1527 3.6333,3.0372 0.0867,0.0775 1.5425,0.7103 -0.0415,-0.102 0.5389,-0.9974 -0.2186,-0.2604 -2.5293,-1.9486 c -0.8768,-0.528 -0.183,-0.2301 -1.2388,-1.0278 -0.5784,-0.437 -2.4406,-3.1524 -2.8057,-3.7908 l -1.5927,-2.7392 c -0.8414,-0.749 -2.3003,2.1848 -3.7676,-3.7857 l -0.2439,-1.2896 c -0.2883,-0.3008 -0.6065,-2.7675 -0.6297,-3.4014 l -0.0433,-1.038 0.03,-1.9594 c -0.0103,-0.0674 -0.005,-0.1474 0.004,-0.2345 l 0.009,-0.556 c -0.3438,-0.9411 0.7566,-5.4828 1.0722,-6.504 0.2918,-0.9443 0.6848,-1.9607 1.0676,-2.8288 0.2931,-0.6644 1.1567,-2.0974 1.2578,-2.5355 l 0.4935,-1.2072 c -1.0753,0.4123 -3.2363,6.4292 -3.6967,8.4218 -0.9065,3.9232 -0.7834,6.9139 -0.1942,10.88 l 0.4688,2.2381 0.2094,0.444 -0.0797,0.0445 -0.9282,-1.2269 c -0.2982,-0.1952 -1.1499,-1.3368 -1.8897,-1.6094 -0.4699,-0.1733 -2.6697,-0.3609 -3.1158,-0.3295 0.0118,1.1149 0.5138,2.1882 0.5982,3.1478 l 0.0459,0.3145 c 0.1402,0.1214 0.246,-0.2273 0.1295,0.3253 -0.0577,1.1777 1.9406,5.0602 2.6155,6.3864 0.4474,0.8792 1.1769,2.2151 1.7007,2.8762 0.2832,0.3573 1.9197,2.4855 1.9485,2.5936 l 0.3762,0.3511 c 0.0833,0.0861 0.204,0.2398 0.3953,0.3468 -0.0841,-0.4846 -0.6865,-0.7876 -0.4067,-1.1327 0.3553,-0.211 0.9098,0.1555 1.1508,0.2237 l 0.1419,0.0797 0.2693,0.2388 0.0953,0.0664 0.0913,0.0889 0.0767,0.0906 0.0787,0.0834 0.0877,0.0789 0.0857,0.0776 0.0961,0.0736 0.099,0.0704 0.1605,0.0836 0.1111,0.0708 0.0865,0.081 c 0.8529,0.2789 1.5062,-1.8618 2.5959,-2.4329 l -0.0856,0.0935 4.6897,3.6744 0.1505,0.2313 c 0.9474,0.2221 8.0561,5.7794 19.1635,4.7427 3.8402,-0.3585 6.5884,-1.1039 9.6573,-2.3926 1.8203,-0.7644 6.6354,-3.5036 7.3072,-4.5829 l 0.1423,-0.1185 0.0956,-0.0771 c 0.7572,-0.6762 1.5465,-1.4694 2.3128,-2.215 1.1893,-1.157 2.0428,0.7347 3.1133,0.7389 l 0.1283,-0.122 0.0729,-0.0931 0.0909,-0.0832 0.0651,-0.093 0.1688,-0.2529 0.3445,-0.4089 0.0792,-0.0893 0.1735,-0.2417 0.8004,-1.0396 c 0.0757,-0.1356 0.1113,-0.1683 0.144,-0.1871 l 0.3984,-0.5174 c 0.0641,-0.0946 0.1312,-0.183 0.2041,-0.2652 l 0.5788,-0.7517 0.3247,0.1863 -0.6219,1.2806 -0.3968,1.4802 -0.3031,0.7237 0.2845,-0.1884 c 0.5916,-1.2103 1.9024,-2.7419 2.5959,-4.1917 0.2329,-0.487 1.8991,-4.727 1.9958,-4.8494 -0.2623,1.6006 -2.9048,7.4882 -3.9262,8.4251 l -0.4724,0.758 c -0.1212,0.2024 -0.1353,0.2824 -0.371,0.4316 l 0.002,-0.0484 c -0.2134,0.4178 -0.5057,0.8479 -0.8996,1.153 -0.488,1.1463 -4.2524,4.6804 -5.3336,5.4355 -1.0815,0.7551 -2.058,1.5149 -3.2384,2.2425 -0.5633,0.3472 -3.3315,1.8361 -3.4809,2.0073 l 4.3423,-2.2049 4.2319,-3.1942 0.158,0.1598 -5.6507,4.9704 -0.091,0.0815 9.961,1.3082 c 0.6605,0.1748 2.012,0.146 2.6587,0.3477 0.7763,0.2419 0.8873,1.2479 0.5681,1.9671 -0.6725,0.0229 -1.8782,-0.1612 -2.7119,-0.1732 -0.5602,-0.008 -1.997,0.2163 -2.6738,0.263 l -5.9195,0.5661 -12.891,-0.4326 -0.2745,0.0547 c -0.3748,0.1483 -15.3854,0.308 -17.3809,0.3619 -1.1765,0.0319 -2.9694,-0.2894 -3.9863,-0.1725 -0.5088,0.0585 -3.7265,-0.1272 -3.9938,-0.1672 -1.7338,-0.2596 -5.8307,-0.052 -7.751,0.1512 l -8.4442,-0.1353 c -2.2339,-0.2609 -5.3117,0.1743 -8.186,0.1267 -2.664,-0.044 -6.6391,-0.2017 -9.0708,0.2529 -1.9667,0.3678 -6.3575,0.0938 -8.4071,-0.0895 -3.5071,-0.185 -1.9677,-0.691 -3.8291,-1.144 l -0.0249,6e-4 c -0.032,-0.8026 -0.2211,-0.3474 0.3532,-0.8683 l -0.5801,-0.319 c 0.2133,-0.3458 1.12,-0.1861 1.7076,-0.2152 1.3153,-0.0652 0.5771,0.0233 0.9152,0.7347 0.3211,-0.3824 -0.1738,-0.618 0.6609,-0.7836 1.691,-0.3357 1.5597,0.002 3.3337,0.0543 0.8522,0.0251 1.5645,-0.1972 2.1313,0.1138 0.2424,0.133 -0.01,0.0332 0.3359,-0.0753 0.4744,-0.1488 1.3994,0.008 1.4944,8e-4 0.7446,-0.0601 0.3475,-0.1622 1.3188,0.0288 0.5485,0.1079 0.2323,-0.1261 1.1165,-0.1467 1.4486,-0.0335 0.5303,0.1689 1.8539,0.0485 0.7384,-0.067 0.2692,0.2748 0.999,-0.003 0.7241,-0.2757 0.0607,0.1216 1.006,0.0278 0.967,-0.0958 0.2993,-0.0389 1.2378,0.0495 0.7275,0.0685 -0.335,-0.004 0.3312,-0.1086 0.2977,-0.0466 -0.1994,0.0542 0.1973,0.2076 0.1305,-0.161 1.3181,-0.5023 1.4359,-0.4586 0.6768,0.2512 -0.0158,0.4014 0.6748,0.1576 0.6095,-0.2153 0.2103,-0.2151 0.548,-0.1886 1.0523,0.0824 0.1233,-0.02 0.6786,-0.1319 0.0199,-0.004 0.5231,0.0596 0.651,0.0222 1.1089,-0.3246 6.8878,-0.3193 8.0335,-0.2624 0.2254,0.0112 0.4772,-0.0348 0.8328,-0.0345 0.4528,3e-4 0.1053,0.0266 0.3925,-0.002 1.942,-0.1939 14.7405,-0.2708 15.4927,-0.9287 2.0163,-0.1409 -0.5126,-0.756 3.6832,0.9453 0.6341,0.2572 3.3901,1.3343 3.9047,1.1401 -3.1142,-0.6206 -9.9223,-4.1483 -11.3182,-5.7969 -0.4288,-0.197 -0.5436,-0.3042 -0.8477,-0.5844 -0.5733,-0.5281 -0.7832,-0.5811 -1.4526,-1.2371 -0.7886,-0.7727 -2.9852,-2.7529 -3.4632,-3.574 -0.5884,-0.2705 -3.0128,-4.029 -3.6195,-5.1501 -1.2218,-2.2578 -1.655,-4.2116 -2.5116,-6.1812 -0.0352,0 -0.0645,9e-4 -0.0885,0.002 l 0.0857,1.017 c -0.1344,-0.8403 -0.6381,-1.6459 -0.9166,-3.0676 -0.135,-0.6894 -0.2212,-1.119 -0.2982,-1.7609 -0.0456,-0.3806 -0.2545,-0.8189 -0.3002,-1.704 -0.0326,-0.2735 -0.1442,-0.5492 -0.1965,-0.9608 l 0.078,-3.1073 c 0.036,-0.1669 0.2895,-5.2226 0.5502,-6.2629 0.1106,-0.4411 0.191,-0.4332 0.2987,-0.8608 0.075,-0.2978 0.0769,-0.6036 0.1786,-0.8941 l 1.0831,-3.4392 c -0.0724,-0.3852 0.0988,-0.7047 0.3213,-0.9452 0.4367,-0.4721 0.5399,-1.0945 0.4527,-1.2124 -0.2468,-0.3339 -0.4141,0.147 -0.832,0.2773 l -0.0476,0.0115 -0.4193,0.1566 c -0.4635,0.1884 -0.3957,0.6249 -0.6439,0.7147 l -0.0371,-1.8866 c -0.0382,-0.0181 -0.0605,-0.0294 -0.0728,-0.0361 0.006,0.007 -0.006,0.0129 -0.1068,-0.009 l -0.5676,-0.077 c -1.3275,-0.075 -0.8777,-0.1962 -0.9625,9e-4 -0.1625,0.3776 -0.0582,0.5091 -0.1047,0.9602 -0.3,0.226 -0.1457,0.01 -0.6142,0.4606 l -0.3414,0.3307 -0.085,0.0833 -0.6553,0.4841 -0.1613,0.1523 -0.2076,0.5717 1.0328,0.4143 0.1179,0.099 0.8475,0.1905 -0.6119,0.2766 c 0.3041,0.0972 0.5206,-0.3742 0.1726,0.4852 -0.1787,0.441 -0.2862,0.5585 -0.4708,0.9795 -0.2092,0.477 -0.7389,1.5995 -1.0572,1.8923 l -1.8444,3.4591 -0.1087,0.108 -0.0688,0.094 -0.0872,0.1604 -0.0879,0.1633 -0.2544,0.6544 c 0.0496,1.2637 -2.0199,2.9808 -1.1015,5.1137 0.1029,0.2389 1.5995,4.9123 1.6023,4.9661 0.3117,0.3183 0.5419,1.3016 0.715,1.73 l 2.1251,4.9239 0.0991,0.4302 c 0.304,0.2221 0.505,1.0192 0.7274,1.4723 0.0734,0.1495 0.1121,0.2425 0.1793,0.406 l 0.1474,0.3402 c 0.1166,0.2449 0.233,0.509 0.3241,0.7511 0.3354,0.7702 1.4526,3.4377 1.939,4.0477 0.4737,0.5942 0.3399,1.0219 0.4165,1.6015 l -0.6268,0.0737 c 0.5793,0.2111 0.6645,-0.1325 0.7152,-0.1777 0.036,-0.0321 0.0265,-0.0671 0.011,-0.0907 0.0195,0.0161 0.0506,0.0398 0.0985,0.0729 0.1727,0.1195 0.213,0.3326 0.1855,0.591 l -11.2689,-1.2296 c -0.0199,0.009 -0.0389,0.0175 -0.0568,0.0268 l 0.003,-0.0326 -3.1785,-0.3468 -1.5117,-0.12 -0.7923,-0.133 -0.2453,-0.088 -1.3111,-1.1743 c -0.5466,-0.1614 -0.977,0.2061 -1.7413,-0.2341 -1.0218,-0.5885 -0.4601,-0.2049 -1.6511,-0.3032 -1.1898,-0.0981 -2.826,-0.1853 -3.3371,-0.8472 l -0.5835,-0.0693 -3.3329,0.001 -5.2404,0.2071 c -1.5086,0.143 -3.4833,0.0368 -5.1062,0.1076 -0.2601,0.0114 -0.3728,0.0586 -0.5689,0.0634 -0.1475,0.004 -0.4821,-0.0468 -0.6124,-0.0526 l -6.8012,0.036 c -2.313,0.053 -4.3724,-0.0585 -6.3696,0.0352 -2.4857,0.1166 -1.129,-0.0872 -3.0454,-0.0874 -0.9668,-1e-4 -2.0332,-0.119 -3.2928,0.0157 l -0.1598,0.007 c 0,0.5099 0.0331,0.1908 -0.235,0.3861 -0.2891,0.2107 -1.1683,0.201 -1.4913,0.201 -0.4542,-0.6403 -0.9206,-0.5767 -2.027,-0.5711 0.112,0.058 0.1706,0.2754 0.1965,0.5371 -0.4913,-0.0971 -0.3975,-0.2568 -1.0317,-0.3167 -0.4755,-0.0449 -0.5451,-0.009 -1.0134,-0.1006 -0.796,-0.3291 -2.7105,-0.0999 -3.2906,-0.4768 l -0.7554,-0.0905 c -1.3244,0.0821 -8.8478,-1.0837 -10.7558,-1.3811 -0.3394,-0.0529 -0.4522,-0.1442 -0.699,-0.1848 -0.6355,-0.1047 -0.2811,0.0525 -0.6589,0.23 -0.2817,-0.2421 -0.1891,-0.368 -0.5213,-0.4524 -0.3631,-0.021 -0.2842,-0.0461 -0.4626,-0.1824 -0.0144,-0.011 -0.0307,-0.0296 -0.0448,-0.0403 l -0.2486,-0.1491 c 0.2651,-0.1732 0.1069,0.0539 0.2285,-0.2446 -0.1482,-0.2426 -0.7383,-0.6892 -1.1497,-1.1032 l -0.2057,-0.21 -0.2113,-0.2101 -1.6204,-1.5717 c -0.147,-0.141 -0.2759,-0.1947 -0.4348,-0.3233 l -0.2538,-0.2492 -0.0443,-0.0405 -2.6302,-2.3665 c -0.1489,-0.2743 -0.4466,-0.3811 -0.5326,-0.6045 -0.165,-0.4288 0.3342,-0.168 0.4699,0.0903 0.28,0.1186 0.4033,0.3594 1.0595,0.8367 0.544,0.3958 0.7009,0.6785 0.8788,0.8031 0.0578,0.0405 0.0527,0.036 0.1587,0.0825 l -0.1999,-0.2871 c -0.0617,-0.0724 -0.0504,-0.0579 -0.1197,-0.1333 l -0.0409,-0.0439 -0.0411,-0.0436 -1.2458,-1.2674 c -0.072,-0.0761 -0.067,-0.0588 -0.1337,-0.118 -0.2556,-0.2264 -0.1399,-0.059 -0.2743,-0.3425 -0.7602,-1.1643 -1.2292,-0.461 -0.6685,-2.3559 -0.4104,-0.077 -0.1554,-0.1925 -0.5901,-0.1274 -0.6739,0.1011 0.1655,0.158 -0.5192,0.2255 0.169,-0.7112 0.0428,-0.4158 0.7538,-0.5907 0.388,-0.0954 0.471,-0.3443 0.8988,-0.4224 0.2154,-0.0393 2.2062,-0.18 2.5313,-0.1373 l 1.0071,-0.1851 0.5819,-0.1455 0.403,-0.08 0.423,-0.1095 0.429,-0.083 0.2307,-0.1367 -0.151,-1.2339 -0.2902,-0.0251 c -0.5217,-8e-4 -2.516,0.5696 -3.1059,0.7056 -0.6062,0.1398 -1.0075,0.1878 -1.6088,0.3612 -0.4086,0.1177 -1.1022,0.3003 -1.4818,0.3356 -0.1431,0.1591 0.1703,0.0807 -0.1614,0.143 -0.0437,-0.4461 0.2427,-1.1149 0.3096,-1.5166 0.0626,-0.3756 -0.0205,-0.2922 0.1239,-0.4549 l 0.0711,-0.4302 c -0.0321,-0.4095 0.0444,-0.2765 0.486,-0.408 0.3672,-0.1094 0.3356,-0.2303 0.6341,-0.2927 0.2656,-0.0556 0.6081,0.0182 0.9244,-0.006 0.8871,-0.0694 3.3257,-0.7095 3.7768,-0.6545 l 0.2541,-0.2853 -0.296,-0.9801 c -0.2466,-0.1257 -0.5751,-0.0892 -0.6943,-0.0762 -0.1764,0.0192 -0.4921,0.0602 -0.6579,-0.0971 -0.685,0.2608 -3.4964,0.3928 -4.1059,0.0261 -0.0722,-0.6183 0.0621,-1.9325 0.0583,-2.69 -0.004,-0.8913 -0.0353,-1.7283 -0.103,-2.5926 -0.1277,-1.6326 -0.3698,-3.2316 -0.7277,-4.7572 -0.4039,-1.7219 -2.0137,-7.0239 -3.1017,-7.9615 0.0993,0.7391 1.0416,1.9956 1.0659,2.6895 l 0.2066,0.3942 0.065,0.2982 c 0.6639,0.6182 1.6468,5.0991 1.8705,6.3743 0.4174,2.3781 0.5549,5.0145 0.4215,7.4752 -0.4025,7.4229 -3.1969,11.519 -3.3371,12.797 -0.0302,0.0847 0.0239,0.048 -0.0726,0.1706 -0.1248,0.1587 -0.0255,0.0406 -0.1627,0.1523 0.003,0.003 0.006,0.006 0.009,0.0102 0.0153,0.1693 0.0643,0.1372 -0.0967,0.1372 l 0.0259,0.0389 c -0.0684,0.5202 -0.8536,1.4984 -1.1308,2.032 l 0.4081,-0.2741 0.1695,0.0866 -1.4118,2.7696 -0.0867,0.0831 -0.0763,0.0927 -0.0715,0.0947 -0.0914,0.0595 -0.1159,0.0612 -0.1264,0.1466 -0.5345,0.6776 -0.0788,0.1141 -0.0855,0.0849 -0.09,0.0632 -0.0989,0.0856 -0.0808,0.0796 -0.0865,0.0935 -0.0724,0.0785 -0.3507,0.501 -0.0816,0.0671 -0.0973,0.0799 -0.0868,0.0771 -0.188,0.1173 c -0.2231,0.1269 -4.3199,3.9787 -4.7209,4.3826 -0.8228,0.8289 -4.1248,3.1844 -5.5072,3.6447 l -0.5296,0.262 -0.1014,0.0735 -0.4194,0.2342 -0.9262,0.3724 0.0117,0.1512 0.817,0.2947 -1.3564,-0.1219 c 0.0354,-0.0192 1.1936,0.0475 0.172,-0.3063 -0.287,-0.0993 -0.3554,0.0117 -0.5189,0.0888 -0.0477,-0.0386 -0.1907,-0.0856 -0.5009,-0.1388 -1.0349,-0.1775 -1.3304,0.3006 -2.4083,1.0961 0.6102,0.7367 1.2746,-0.879 2.0107,0.1777 0.0781,0.1121 -0.3423,0.0916 0.4612,0.2276 l 1.9593,0.2774 15.4918,-0.1339 c -0.4197,0.3434 -3.2215,-0.0749 -2.1877,0.6398 l -1.3098,0.4829 -0.0862,-0.8944 c -0.5826,0.05 -0.0495,0.0922 -0.2128,0.7936 -0.1085,0.466 -0.4204,0.4666 0.3998,0.5888 l -1.2446,0.013 0.325,-0.9598 -0.6975,-0.1957 -0.3334,1.1337 c -0.1609,-1.2585 -0.4459,0.2475 -0.465,0.2678 -0.4084,0.1686 -4.9434,0.4123 -5.5895,0.4313 -2.8951,0.0853 -2.9158,0.2682 -5.4845,0.5777 -1.9585,0.2361 -3.6161,0.3105 -5.5554,0.528 -1.6901,0.1895 -4.1301,0.4505 -4.641,-0.946 0.2977,-0.2192 0.412,-0.5528 0.7152,-0.7627 0.6448,-0.4464 0.7004,-0.223 0.046,-0.5415 l 0.19,-0.2442 c -1.3392,0.3598 -2.7785,0.4371 -4.1826,0.5 -1.1116,0.0499 -3.8928,-0.2224 -4.3431,-0.1366 l -1.9907,-0.1066 -0.0249,0.2801 6.5651,0.224 -4.6079,0.1872 -0.4599,0.7107 0.966,0.5423 -0.8248,0.3507 -0.7816,-0.2863 -0.0572,0.1784 0.4671,0.1583 c -0.6402,0.0105 -1.6688,0.0365 -1.8833,0.0778 -2.9324,0.5642 -4.6248,0.0107 -7.8274,-0.4019 -1.3107,-0.3489 -10.0953,0.0584 -11.4513,-0.228 -0.095,-0.02 -2.3476,-0.0921 -2.6625,-0.065 -1.3783,0.1187 -7.7319,-0.6644 -7.9984,-1.1307 l -0.4984,-0.9553 0.9259,-0.7093 4.1649,0.1292 0.1581,-0.0599 c 0.6113,-0.0182 1.4702,-0.1295 2.1315,-0.2003 0.7833,-0.0838 1.6719,-0.0684 2.47,-0.1288 1.1364,-0.0861 3.7182,-0.4549 4.7491,-0.391 l 0.4267,-0.2374 0.2592,-0.1211 1.1775,-0.2028 0.9308,-0.0795 c 0.0449,-0.007 0.0897,-0.0143 0.1341,-0.02 0.1524,-0.0194 0.2561,-0.0226 0.34,-0.0206 l 0.7272,-0.062 0.1784,0.0136 0.4017,-0.4381 c 0.2572,-0.398 -2.6022,-1.7069 -3.179,-2.0948 -0.8341,-0.5607 -2.5747,-1.8046 -3.2803,-2.1886 -1.0699,-0.5825 -2.6577,-2.2839 -2.9328,-2.4214 -0.5778,-0.2889 -2.5019,-2.3962 -2.4189,-2.5691 0.1359,-0.3821 1.4933,-1.897 1.8618,-2.2352 0.5835,-0.5353 0.4507,-0.591 1.2655,-0.708 0.4823,-0.0693 0.2112,-0.1519 0.5358,-0.01 0.6883,0.3007 -0.1743,-0.0476 0.6547,-0.0661 0.2056,0.093 3.5908,3.0441 4.5692,3.6777 1.6428,1.0638 3.4118,2.111 5.3579,2.9166 4.2755,1.7701 8.8481,2.6195 14.364,2.2871 l 0.0865,0.0354 c 0.069,-0.0497 2.5812,-0.2852 2.9329,-0.3396 0.5167,-0.0802 0.8782,-0.1588 1.3907,-0.2606 1.1451,-0.2274 0.5563,-0.1309 1.2255,0.1985 -0.4139,-0.6854 0.1731,-0.4594 2.0364,-1.0951 4.2099,-1.4362 8.0872,-3.7355 11.1896,-6.7058 0.7469,-0.7151 2.9829,-3.4536 3.4196,-3.7688 l 0.9633,-1.2615 c 0.4274,-0.7445 0.4271,-0.5979 0.7429,-1.0542 l 0.6875,-1.3006 c 0.2692,-0.5593 0.8049,-1.8514 1.0549,-2.1835 0.2668,-0.3543 0.3004,-0.0341 0.6204,-1.0989 l 0.1137,-0.3291 0.0327,-0.0635 c 0.008,-0.0161 0.0211,-0.0433 0.0342,-0.0636 l 0.1077,-0.241 0.1334,-0.5245 c 0.042,-0.1917 0.7651,-2.9397 0.8451,-3.0782 0.4991,-0.8645 0.0166,-0.6884 0.2237,-1.573 0.4117,-1.7582 -0.1767,-1.8508 -0.2198,-2.2629 l -0.0183,-2.8587 c -0.0665,-1.1629 -0.3008,-2.2083 -0.4481,-3.3571 l -2.9893,-8.0521 -0.8432,-0.7088 -0.1328,0.3827 c 0.3445,0.2624 1.5868,2.9863 1.8545,3.6351 0.5437,1.3173 1.0069,2.7268 1.318,4.2327 0.894,4.327 0.6081,5.8452 0.2445,9.9877 l -0.8037,3.3714 -0.1059,0.1527 -2.2968,5.3879 -0.1958,0.2026 c -0.356,1.7433 -5.114,6.3078 -6.1794,7.2219 -2.192,1.881 -4.874,3.5814 -8.5738,4.9403 -1.1842,0.4349 -2.4656,0.8062 -3.812,1.1016 -1.4259,0.38 -2.8121,0.6293 -3.9534,0.6231 -0.449,0.0441 -0.9014,0.0798 -1.3563,0.1067 -0.4676,0.0539 -0.99,0.0707 -1.549,0.0565 -4.2167,0.0588 -8.544,-0.664 -12.2279,-2.4532 -6.0574,-2.9418 -11.4373,-7.2559 -14.0079,-12.8553 -1.2632,-2.7514 -2.6169,-5.5257 -2.9829,-10.2205 -0.174,-2.2327 0.3269,-10.0784 1.7377,-11.4175 l 0.4593,-1.2916 0.1571,-0.1644 0.6482,-1.419 0.1815,-0.3276 0.297,-0.6376 0.107,-0.1253 -0.002,-0.0149 0.1964,-0.2838 c 0.827,-2.2002 4.88,-6.0588 6.3877,-7.3056 1.7407,-1.4397 4.2701,-2.9445 6.4445,-3.9548 0.5341,-0.2483 1.9745,-0.7186 2.3648,-0.9531 l 0.5846,-0.3036 c -0.2782,-0.7911 -0.4511,-0.197 -1.7812,-0.0244 l -0.9891,-5.155 c -1.8989,-0.2299 -10.2014,5.6449 -10.2294,5.6485 0.2701,-0.5898 4.7109,-3.5152 5.6228,-3.9716 0.6755,-0.338 2.3888,-1.1975 3.2323,-1.6046 0.3963,-0.1912 2.7688,-1.8914 3.2433,-1.3787 l -0.7717,-2.2912 -3e-4,-0.2741 -0.3307,-0.7177 -0.6049,-1.2951 c -0.5238,-0.0523 -1.4146,0.3382 -1.9493,0.4453 -0.4027,0.0807 -0.7578,0.008 -1.164,0.1105 -1.5421,0.3869 -3.4383,1.3082 -4.531,1.5288 0.2,-0.3516 2.9815,-1.1663 3.5626,-1.3443 0.6462,-0.1979 1.2614,-0.2993 1.9291,-0.5616 0.3985,-0.1567 1.5043,-0.4371 1.9431,-0.5121 -0.0683,-0.6782 -0.5362,-1.3476 -0.5438,-1.9268 l 0.232,0.1379 0.0467,0.0266 0.086,0.04 c 0.1341,0.0656 0.1532,0.0212 0.2644,0.2225 l 0.5604,1.1481 0.5242,0.0586 -0.479,-1.4434 c 0.6574,0.3271 0.4314,-0.0434 0.6091,0.411 0.2409,0.616 -0.1326,0.0932 -0.2886,0.1614 0.4197,1.2336 -0.2363,0.7854 2.5966,0.4061 0.9646,-0.1292 2.1537,-0.4251 3.2007,-0.4943 1.8096,-0.1197 3.5384,-0.1845 5.3729,-0.2435 l 2e-4,-0.001 0.0926,-0.002 c 0.5348,-0.0171 1.0789,-0.0339 1.6367,-0.0514 l 0.1083,0.0172 0.1487,-0.004 4.3822,0.4874 c 0.7587,-0.0703 3.5448,0.5635 4.435,0.746 l 5.9502,1.8899 c 3.1176,1.0464 5.9899,2.5061 8.8082,4.0785 0.5997,0.3346 1.0872,0.6629 1.6076,1.0138 0.5825,0.3929 0.9899,0.6069 1.5265,1.0041 0.801,0.5929 4.4028,3.2041 4.9965,4.0011 0.11,0.1476 0.12,0.2427 0.3149,0.3548 0.2367,0.1363 0.2455,0.1025 0.5666,0.1266 -0.0558,-0.1612 -0.0731,-0.1063 0.1237,-0.1134 0,0.008 1e-4,0.0154 2e-4,0.0227 0.1376,-0.1709 -0.1107,0.0199 0.1936,-0.1816 l 0.1708,-0.0843 c 0.3167,-0.1615 1.2154,-0.7484 1.0508,-0.1456 -0.0686,0.2517 -0.4384,0.8757 -1.02,1.0384 0.1581,-0.4428 0.0689,-0.0887 0.4235,-0.4579 0.1573,-0.1638 0.2351,-0.2882 0.3212,-0.5344 -0.3224,0.1001 -0.3671,0.0915 -0.5254,0.2701 l -0.1282,0.1726 c -0.0142,0.0349 -0.0178,0.0497 -0.0181,0.0555 -0.005,10e-5 -0.0219,0.01 -0.071,0.0603 l -0.2947,0.263 c 0.0481,0.2196 0.0961,0.2562 0.2627,0.408 0.1945,0.1144 0.0507,0.0175 0.1842,0.1202 l 0.298,0.3021 0.1191,0.131 0.2825,0.312 c 0.3075,0.3104 0.4705,0.5413 0.7406,0.8459 1.1469,1.2928 0.1837,0.607 1.9949,1.1961 0.8251,0.2683 2.4128,1.1395 3.3357,1.5764 0.2992,0.1417 0.799,0.384 0.9809,0.6435 0.1938,-0.0678 0.1527,-0.1082 0.1527,0.0795 0.4408,0.1044 1.0938,0.5498 1.5643,0.668 0.223,-0.005 0.2189,-0.0737 0.1535,0.0959 0.3672,-0.0235 0.1854,-0.01 0.2311,0.0976 l 0.1617,-0.009 c -0.0369,-0.2782 -0.0549,-0.1343 0.0889,-0.1641 -0.0251,-0.2877 0.0647,-0.5471 0.251,-0.8128 l 0.0741,-0.1023 c 0.1008,-0.0888 -0.0514,0.002 0.2111,-0.1168 0.0274,-0.0125 0.0794,0.0134 0.1008,-0.028 0.0228,-0.0442 0.0718,-0.0196 0.1086,-0.0255 l 0.1732,0.5733 0.3658,0.008 0.0839,-0.571 c 0.484,0.085 -0.009,0.3076 1.1932,0.3122 0.4481,0.002 0.7052,0.0943 1.1138,0.1474 l -0.007,-0.654 c 0.4839,-0.2136 0.4212,-0.3267 1.0609,-0.2523 0.3458,0.0402 0.8921,0.1644 1.0852,0.2857 0.0281,0.9435 -0.573,0.6961 -0.612,1.2266 l 1.6059,0.4747 -0.0813,-0.0838 0.6397,-1.5808 0.1027,-0.0393 -1.8788,-0.3068 -0.3958,-0.0842 c -0.3891,0.0559 -0.3246,-0.0969 -0.6475,0.0538 l -0.0711,-0.1839 c -0.3926,0.0989 -0.1533,0.0458 -0.2074,-0.0476 -0.5161,0.1276 -0.1965,0.0138 -0.3064,-0.0942 -0.8646,0.1493 -0.8191,0.9857 -1.3487,0.3576 l 0.7426,-0.9007 -0.064,-0.2252 3.8449,0.9435 c 0.3326,-0.0687 0.2761,0.0545 0.4359,-0.5877 0.3579,-1.4379 0.9818,-3.6589 1.0513,-4.9664 0.3083,-0.1659 0.3395,-0.2603 0.4633,-0.6023 0.1694,0.2074 0.0821,0.434 -0.007,0.8077 -0.0687,0.2898 -0.1497,0.4919 -0.2305,0.7517 l -0.999,4.7263 c 0.3508,0.0117 0.1006,-0.0155 0.1946,0.1048 0.1783,-0.013 2.9423,0.3986 3.0232,0.4433 0.2051,0.1134 1.2087,1.6451 1.2345,2.0661 -0.8784,-0.6968 -1.0274,-2.0488 -2.2716,-1.8444 l -0.4259,0.0358 c 0.4693,0.0984 1.0672,0.24 0.8791,0.9006 -0.0572,0.2011 -0.2297,0.4113 -0.346,0.5767 -0.2149,0.3063 -0.2845,0.3581 -0.2358,0.4678 l 0.1686,0.1027 3.5637,0.8972 -0.0485,0.1821 -2.1535,-0.3127 c -0.6087,0.0557 -0.1302,-0.0578 0.003,0.5643 0.1855,0.8632 -0.4269,2.4493 -0.3604,2.8122 0.0981,0.5354 0.8799,0.7355 0.7939,1.3899 -0.0441,0.3354 -0.286,0.5402 -0.4386,0.7593 -0.1062,0.1525 -0.1497,0.2212 -0.1513,0.2611 l 0.0601,0.0652 c 0.0675,0.0376 0.1819,0.0989 0.2925,0.3178 l 0.0572,-0.0191 c 1.0566,0.4772 0.211,-0.5556 0.8833,-1.4192 l 0.7097,-3.434 c 0.1622,-0.3756 0.2872,-0.6333 0.6298,-0.7775 -0.0496,0.6981 -0.3917,1.5879 -0.5879,2.2634 l 0.5666,-0.6207 0.0507,0.115 2.347,0.4904 c 1.1663,0.0169 2.4318,0.4246 3.3921,0.6404 0.6324,0.1421 1.1215,0.2314 1.5497,0.6502 l 0.4611,-0.1691 2.3692,-1.1994 3.3492,-0.8036 c 0.1434,-0.3396 -0.3728,-0.1342 -0.7746,-0.4173 l -4.0806,-2.2659 c -0.6787,-0.2816 -1.0945,-0.4917 -1.6828,-0.8364 -1.2312,-0.7214 -2.5757,-1.9999 -2.9675,-3.3248 l -0.2871,-0.9316 c -0.0538,-0.5074 0.3571,-1.6034 0.5971,-1.8842 -0.0381,-0.5482 0.4976,-1.2152 0.7456,-1.6137 0.5186,-0.833 0.0113,-0.9595 0.0964,-1.8682 0.0277,-0.295 0.3666,-1.3566 0.4764,-1.934 0.1402,-0.7378 -8e-4,-0.3877 -0.0637,-0.7952 -0.0309,-0.2002 0.0911,-0.5135 0.138,-0.9465 -0.5452,0.059 -0.5146,0.2865 -0.8576,0.0844 0.0829,-0.213 -0.0919,-0.1938 0.1999,-0.2463 -0.0204,-0.003 -0.0537,-0.006 -0.1126,-0.005 -0.9615,0.0216 -0.4787,0.0752 -1.1304,0.1731 -0.1237,0.0186 -0.1215,0.0289 -0.2801,0.005 -0.0571,-0.009 -0.096,-0.0132 -0.1218,-0.0152 0.002,-0.008 -0.01,-0.0247 -0.0526,-0.0544 0.0889,-0.3274 -0.1289,-0.1169 0.2698,-0.2759 0.0301,-0.012 0.2011,-0.041 0.2708,-0.0429 l -0.8884,-0.1088 c 0.1247,-0.2978 0.5776,-0.3557 1.0806,-0.4048 l 1.7026,-0.4104 c 0.0471,-0.2272 0.1702,-1.832 0.1673,-2.0475 -0.0138,-1.0134 -1.0901,-0.4737 -1.4459,-0.7018 l 0.7703,-1.0846 -2.9483,-1.3812 c -0.2001,0.2596 -0.4353,0.2633 -0.4478,0.2696 l -0.3574,0.3395 c -0.5347,-0.1568 -0.7166,-0.3537 -1.1416,-0.594 -0.6662,-0.3766 -0.685,-0.1251 -1.2266,0.0365 -0.3012,0.0899 -0.4828,0.01 -0.7769,0.0936 -0.3698,0.1058 -0.2011,0.4202 -1.0762,-0.1592 -0.2805,-0.1858 -0.2888,-0.1145 -0.2305,-0.5217 -0.255,0.1547 -0.1533,0.1752 -0.3546,0.1657 -0.006,-3e-4 -2.0799,-0.9345 -2.304,-1.2058 l -8.4343,-4.1465 c -0.3528,-0.1023 -1.0114,-0.4828 -1.4287,-0.6771 -1.5879,-0.7392 -5.294,-2.6361 -6.6751,-3.1402 -0.4394,-0.1603 -0.9287,-0.4272 -1.3363,-0.6239 -0.4217,-0.2035 -0.9388,-0.4319 -1.3537,-0.6015 0.0452,-0.0426 0.0395,-0.0927 0.0276,-0.1365 -0.5287,-0.103 -2.7834,-1.3686 -3.3772,-1.6692 -0.5726,-0.2898 -1.3398,-0.5106 -1.7948,-0.7595 -0.5553,-0.3039 -0.5896,-0.5281 -1.509,-0.9348 -0.3947,-0.1746 -2.8904,-1.5942 -3.1646,-1.8256 -1.1251,-0.9494 -1.0034,-0.3494 -1.6546,-0.7231 -0.5726,-0.3285 -0.6059,-0.9075 -1.4968,-0.8444 l 0.1017,-0.519 c 0.8158,0.6587 0.6182,0.5185 1.7878,0.9177 2.4193,0.8258 15.0611,4.2381 15.7157,4.1766 l 1.7471,0.3302 c -0.1662,-0.4241 -1.564,-0.3937 -2.1514,-0.8316 l -13.0959,-3.5344 -1.848,-0.5664 -1.0709,-0.4286 -0.1132,-0.0914 -0.2541,-0.1652 c -1.6466,-0.4251 -7.1592,-6.2956 -8.6629,-7.5127 -0.2844,-0.1739 -0.4889,-0.4592 -0.7379,-0.7277 -0.2489,-0.2681 -0.3215,-0.3677 -0.699,-0.6478 -0.3912,-0.2901 -1.3009,-1.4873 -1.7727,-1.7465 -0.1297,-0.0712 -0.3171,-0.1133 -0.5835,-0.1205 -0.8448,-0.0227 -3.2651,0.0326 -3.8038,0.3342 1.0884,0.0113 2.2243,-0.0674 3.2807,-0.048 0.2421,0.004 0.6074,0.0197 0.8289,0.095 0.2859,0.0972 0.9807,0.8695 1.1538,1.1608 l 1.7778,1.7553 -0.0728,0.1565 -28.1143,-1.6109 -0.2426,-0.0672 -0.411,-0.1332 0.0169,-0.1566 0.3956,-0.0366 17.876,-3.6681 0.3315,-0.07 c 0.4827,0.079 4.092,-0.5613 4.9087,-0.7155 0.794,-0.1499 1.6685,-0.3011 2.5107,-0.4089 0.7319,-0.0937 1.8518,-0.3529 2.5359,-0.3642 0.7448,0.0206 1.9744,-0.2229 2.7832,-0.3081 1.1378,-0.1201 0.8683,-0.4814 1.5069,-0.3623 l 0.7092,0.3096 -0.332,0.1176 c 0.0125,0.4635 0.1402,0.6306 0.199,1.0835 0.0676,0.5208 0.1081,0.4916 0.2447,0.9802 l 0.0285,0.1018 -0.0103,0.095 c 0.1801,0.1018 0.185,-0.1319 0.1416,0.2151 l 0.3038,1.4887 c 0.1634,0.0163 0.2225,0.028 0.3484,0.0689 l 0.2347,0.1085 c 0.009,-0.016 0.0375,0.0209 0.0555,0.0325 0.235,0.0192 0.4074,0.0789 0.6172,0.1361 0.085,0.0232 0.1831,0.0467 0.2648,0.0763 l 0.2414,0.1137 0.5856,0.0907 -0.4012,-1.5701 c 0.1758,-0.9798 2.4765,0.5519 2.8008,0.7887 0.2442,-0.1538 0.1791,0.1486 0.1095,-0.2636 l -0.3788,-0.7934 c -0.1992,-0.2582 -0.6542,-0.4199 -0.83,-0.5309 l -0.0549,-0.0402 -0.107,-0.0925 c -0.2691,-0.1179 -0.7436,-0.4639 -1.0133,-0.6261 -0.3551,-0.2135 -0.6955,-0.4096 -1.0614,-0.6274 -0.9677,-0.5762 -2.2181,-0.8539 -1.9107,-1.1235 0.7485,-0.285 0.827,0.0845 1.2434,0.281 0.9677,0.4564 2.5448,1.5934 3.1623,1.8065 0.091,0.0399 0.2668,0.142 0.2791,0.146 l 0.2913,0.0602 c 0.3211,0.3634 -0.2735,0.1658 1.4133,1.445 0.3471,0.2632 0.4422,0.1581 0.3526,0.4621 -0.3278,0.0701 -0.9265,-0.5466 -1.1813,-0.7092 0.0257,0.0626 0.0851,0.1357 0.1207,0.1925 l 0.3812,0.8544 c 0.135,-0.0204 0.1067,-0.0485 0.0907,0.078 l 0.1153,0.0588 c 0.139,-0.024 0.0998,-0.0479 0.0998,0.0914 0.5662,0.6709 0.8925,0.5641 1.5186,1.641 0.3464,0.5957 0.6927,1.4246 0.974,2.0914 0.9708,2.3016 2.6591,1.339 3.8036,2.4699 l 0.7125,0.1585 0.2778,0.1514 1.9858,0.6597 0.002,-0.0527 0.306,0.1438 c 0.5414,-0.006 9.1733,2.5506 10.7376,2.9554 1.9547,0.5058 9.6872,2.5961 11.3134,2.4316 0.4015,-0.2868 1.7827,-0.8795 2.434,-1.3101 0.8028,-0.5309 1.4554,-1.0318 2.1885,-1.6033 0.7242,-0.5647 3.8449,-3.1827 4.2908,-3.3514 l -0.0125,0.0108 0.1618,-0.1104 0.5277,0.1889 0.1067,0.1386 0.0917,0.0782 0.1164,0.0622 c 1.0822,-0.6837 3.8902,-3.9934 5.0805,-5.1663 0.4016,-0.3957 0.6755,-1.1364 1.3158,-1.0924 0.6883,0.0472 1.1429,-0.2611 1.9225,-0.4909 1.3,-0.383 2.6433,-0.7827 4.0129,-1.1411 1.2831,-0.3358 2.9459,-0.6841 4.1408,-1.0439 1.1725,-0.3529 2.8585,-0.4372 4.2204,-0.7198 1.2434,-0.258 7.6795,-1.5147 8.3664,-1.7886 l 0.1271,0.0106 0.3394,-0.0875 6.8051,-1.3064 0.0381,0.1867 -1.3739,0.3971 c 1.0891,0.7405 1.6498,0.3433 4.4288,2.0771 1.3498,0.8421 2.7751,1.6652 4.1739,2.4988 1.7776,1.0593 7.848,4.2712 8.3368,5.1146 l -2.3381,-1.2317 -2.9617,-1.7244 -0.6305,-0.3342 c -0.6236,-0.0463 1.3481,0.9033 1.5018,1.0078 0.3456,0.2352 1.7625,1.0222 1.2732,1.6915 l -2.4588,-0.1951 0.0837,0.2759 0.186,0.0803 0.1104,0.0611 0.2386,0.0977 0.1266,0.1054 0.7664,0.36 c 0.2687,0.1091 0.4265,0.1928 0.6986,0.3187 0.1497,0.0692 0.2191,0.0876 0.3546,0.1514 0.2111,0.0995 0.1902,0.0697 0.2581,0.1536 0.028,0.0115 0.0552,0.0225 0.0812,0.0331 l -0.0374,0.0207 c 0.2718,-0.0206 0.1395,-0.0476 0.1665,0.081 0.2806,-0.0224 0.1484,-0.0492 0.1637,0.0828 0.2773,-0.0209 0.1478,-0.0527 0.1833,0.0749 0.3865,-0.0119 0.1794,-0.0532 0.2355,0.088 0.4303,-0.0294 2.2187,-0.0301 2.4571,0.136 0.4266,0.3527 0.0273,0.4957 -0.0425,0.9311 l 0.9011,0.3295 0.1936,-0.1403 0.1358,-0.1254 0.0645,-0.1106 0.0732,-0.1053 0.1069,-0.1856 0,-0.043 c -0.1372,-0.1814 -0.1036,-0.2038 -0.102,-0.4151 l 0.4514,-0.1862 c 0.0918,0.2245 -0.0299,0.2431 -0.0139,0.62 0.1666,0.1337 0.1941,0.1285 0.3045,0.3275 0.4556,-0.0604 0.3862,-0.0817 0.7178,-0.1916 0.3064,0.3231 0.2498,0.3331 0.8147,0.4923 l 3.0051,0.6839 2.5506,0.2107 -1.2949,-2.4687 -0.3109,-0.0499 c 0.2671,-0.4878 0.2971,0.1201 0.2839,-0.3787 -0.2655,0.0469 -0.352,0.2891 -0.6534,0.2999 -0.378,0.0137 -0.1869,-0.0441 -0.2569,-0.0857 0.1067,-0.2143 -0.1402,-0.0864 0.5194,-0.3265 -0.0869,-0.1156 0.1716,-0.0925 -0.253,-0.0908 -0.27,-0.0746 -0.0747,0.0436 -0.1833,-0.1779 0.3367,-0.1859 0.8882,-0.2451 0.977,-0.5924 0.1269,-0.111 -0.1868,-0.0956 0.1562,-0.1166 -0.0236,-0.0938 -0.1369,-0.3877 -0.1903,-0.482 -0.1093,-0.193 -0.0845,-0.1344 -0.1942,-0.2067 l -0.249,-0.1264 c 0.1092,-0.5962 -0.2801,-0.8557 -0.4545,-1.4445 0.7134,0.1334 0.3383,0.2484 0.8696,1.0543 0.1782,-0.1165 0.0407,-0.0552 0.3244,-0.1193 0.1616,-0.0913 1.0152,-0.4429 1.1494,-0.8489 -0.5878,-0.009 -0.2149,0.1936 -0.8415,0.1788 l -0.1326,-0.5991 0.6882,-0.3034 -0.2157,-0.1078 c -0.0494,-0.0312 -0.067,-0.0314 -0.0709,-0.0225 -0.0104,-0.0208 -0.0283,-0.0531 -0.0577,-0.102 -0.0169,-0.0282 -0.1328,-0.351 -0.1365,-0.4137 0.3185,-0.1915 0.4443,-0.2629 0.7769,-0.4755 0.2798,-0.1788 0.4563,-0.2826 0.7379,-0.4298 l -0.1792,-0.6646 c 0.3282,0.3532 -0.021,0.1648 0.5855,0.7203 0.3784,0.3467 -0.1615,-0.0512 0.322,0.7592 0.4293,-0.0169 0.875,-0.2569 1.1601,-0.116 -0.1778,0.3932 -0.6389,0.2546 -0.7939,0.6711 0.3115,0.2922 0.051,0.2493 0.4193,0.2059 0.0787,-0.009 0.3448,-0.1433 0.4791,-0.1897 0.3075,-0.1065 0.7677,-0.3249 0.9023,-0.3519 l -0.0394,-0.4724 0.4145,0.2988 c 0.01,0.0107 0.0293,0.0282 0.0377,0.0392 0.1594,0.2049 -0.0547,0.1451 0.3227,0.9538 l 0.6406,-0.1632 0.2251,-0.0228 0.0638,-0.006 c 0.2404,-0.0343 0.094,0.007 0.3445,-0.0828 0.1025,0.1395 0.1397,-0.215 0.0639,0.2799 0.1689,0.0641 0.1882,-0.0218 -5e-4,0.0997 l 0.9077,1.4889 c -0.01,0.0226 -0.0255,0.05 -0.0342,0.0658 -0.1495,0.2706 -0.2533,0.3419 -0.1874,0.6494 0.0486,0.2262 0.1698,0.4537 0.4078,0.3975 0.0713,-0.1959 -0.014,-0.2508 -0.0401,-0.3414 -0.0809,-0.2799 -0.2339,-0.2042 0.0614,-0.3368 0.2581,-0.1252 1.0606,0.1556 1.2494,0.2904 l 0.4118,-0.885 0.0902,-0.0219 -0.307,-0.0644 c -0.009,0.007 -0.0164,0.0253 -0.0197,0.0262 l -0.0943,0.001 c -0.007,-0.0238 -0.0486,-0.0189 -0.074,-0.025 l -0.0308,-0.0651 -0.1077,-0.1955 c 0.1854,-0.2308 -0.2248,-0.1321 0.2131,-0.1901 l 0.2263,0.002 0.5461,-0.0178 0.1723,-0.4441 c 0.0171,0.0206 0.0333,0.0493 0.0426,0.0677 l 0.0695,0.1337 0.0216,0.0655 0.0232,0.1855 0.0918,-0.009 c -0.1618,-0.6014 -0.2488,-0.4501 -0.3989,-0.8303 -0.0479,-0.1214 -0.032,-0.1844 -0.0903,-0.3222 -0.348,-0.0902 -0.2899,-0.0852 -0.7067,-0.1401 -0.2198,-0.029 -0.1573,-0.009 -0.3723,-0.0779 -0.2058,-0.0661 -0.116,-0.0383 -0.2285,-0.0967 0.1068,-0.4826 0.5241,-0.3628 1.2517,-0.2111 0.0106,-0.0134 0.0236,-0.0364 0.0279,-0.0426 l 0.0651,-0.091 c 0.004,-0.0257 0.0216,-0.0342 0.0367,-0.0478 0.4272,0.035 0.1259,4e-4 0.243,0.1057 0.5288,-0.0339 1.9247,0.1252 2.6893,0.1278 0.5813,0.002 0.823,-0.1814 1.2517,0.0349 0.6017,0.3036 0.6761,0.0945 1.0546,0.2871 -0.0491,0.1593 0.1889,0.1508 -0.2365,0.1682 l -0.2607,0.0632 c 0.0269,0.0356 0.0884,0.2546 0.0897,0.2572 l 0.2466,1.06 1.0051,0.212 c -0.6826,0.3221 -1.2817,-0.4198 -1.1287,0.778 l 0.0352,0.3955 c -0.173,0.0544 -0.4025,0.1304 -0.4511,0.081 l -0.1406,0.9787 c -0.3548,0.2243 -0.4722,0.2664 -1.0252,0.3151 0.0983,0.2301 0.2638,0.8808 0.8188,0.753 0.2881,-0.0664 -0.0507,-0.1891 0.4669,-0.0658 l 0.1713,0.091 c 0.3911,0.4441 2.5412,1.3253 3.2341,1.9697 0.1922,0.1787 0.277,0.1729 0.429,0.4156 0.2036,0.3246 -0.0713,0.485 0.1357,0.3608 l 0.0286,0.1621 2.8807,-0.4083 0.056,-0.0424 0.9227,-0.6889 -0.6717,-0.6459 c -0.0607,-0.0536 -0.1154,-0.1062 -0.1624,-0.156 l -0.446,-0.4289 c -0.3455,-0.2335 -0.5162,0.2088 -0.7422,-4e-4 -0.235,-0.4024 0.3927,-0.5596 0.7307,-0.8913 0.3281,-0.322 0.4406,-0.7273 0.7985,-0.9303 l 0.1055,-0.0972 0.0937,-0.0477 0.1246,-0.0731 0.0595,-0.119 0.0729,-0.0636 0.0961,-0.0909 0.0877,-0.0599 0.1106,-0.0669 0.1058,-0.0752 0.0957,-0.1442 0.1032,-0.0797 0.0778,-0.0712 0.076,-0.0977 0.0938,-0.0817 0.0945,-0.0724 0.0934,-0.0751 0.1344,-0.0834 c -0.0587,-0.325 0.002,-0.1077 -0.1686,-0.3026 l -0.1487,-0.1329 c -0.008,-0.0295 -0.0369,-0.0275 -0.0525,-0.044 l 0.0139,0.0439 c -0.3864,-0.1294 -2.1502,-1.0823 -2.3442,-1.3532 -0.4191,-0.0543 -5.9734,-3.4306 -7.5335,-4.0146 -2.4262,-0.9085 -6.4567,-2.3636 -9.8094,-1.8613 -0.3982,0.007 -0.3989,-0.0558 -0.6335,-0.0767 -0.2789,-0.025 -0.1632,0.1119 -0.4706,0.0199 l -1.0563,-0.6368 c -0.1229,-0.199 -2.5056,-1.8189 -2.8942,-2.1733 -0.1862,-10e-4 -0.159,0.0502 -0.137,-0.1051 -0.2359,-0.0156 -0.1027,0.024 -0.1256,-0.1236 l -0.478,-0.2611 c -0.5705,-0.3932 -0.234,-0.3462 -0.7147,-0.6309 -0.0244,-0.0145 -0.0707,0.0684 -0.3578,-0.3096 -0.1821,-0.2396 -0.1926,-0.156 -0.0805,-0.4812 0.2006,-0.5826 0.5414,-0.5692 1.2248,-0.6859 0.5261,-0.09 1.0364,-0.1222 1.6225,-0.1475 0.6617,-0.01 1.9076,-0.1379 2.5895,-0.2388 0.4188,-0.0619 0.7746,-0.1169 1.1767,-0.1748 0.3916,-0.0564 0.8947,-0.0967 1.1585,-0.289 -0.3622,-0.2236 -0.6278,-0.0719 -0.7318,-0.4891 0.2019,-0.1848 0.484,-0.1513 0.6394,-0.265 -0.5015,-0.1152 -0.7639,-0.2487 -1.1889,-0.4258 -1.0979,-0.4577 -0.7418,-0.2419 -1.1769,-0.1375 -0.2858,-0.3657 -0.1148,-0.3733 -0.7421,-0.601 l -1.9315,-0.782 c -0.4032,-0.1946 -0.6127,-0.1513 -0.7952,-0.5075 0.9335,0.3939 1.5517,0.4523 1.6692,0.506 0.2706,0.1237 1.1102,0.6623 1.4517,0.582 0.0856,-0.0202 0.137,-0.0774 0.2693,0.0661 0.1566,0.1697 0.1035,-0.0857 0.3289,0.0164 0.696,0.3153 -0.5398,-0.1239 0.5963,0.4051 l 1.6379,0.6473 c 0.6206,0.2332 1.8888,1.0074 2.4307,0.659 -0.2109,-0.139 -1.8079,-0.7404 -2.142,-0.8191 l -0.357,-0.0541 -0.0486,-0.0158 c -0.006,-0.002 -0.0125,-0.005 -0.0183,-0.007 -0.0169,-0.009 -0.0411,-0.0221 -0.0743,-0.0389 -0.8267,-0.4178 -1.3155,-0.3855 -1.5573,-0.7548 1.1103,0.0496 4.3761,1.6603 4.9026,1.6194 l 9.1515,-1.1057 1.0577,-0.0731 0.0211,-0.0942 -2.149,-1.3374 -0.2382,0.0538 c -0.1736,-0.0721 -0.3144,-0.1732 -0.4649,-0.2754 -0.2787,-0.1894 -0.2399,-0.0936 -0.3752,-0.3861 -0.1488,0.0395 -0.1219,0.0693 -0.0963,-0.0721 l -0.2173,-0.0501 c -0.3726,0.0359 -0.465,-0.0356 -0.7629,-0.154 -0.4304,-0.1713 -0.4241,-0.1015 -0.501,-0.5919 0.4355,0.0223 0.5761,0.0118 0.9197,0.1788 l 0.616,0.2664 c 3.9711,2.0036 8.3238,4.1963 11.4041,6.6964 l -7.1107,-4.351 -0.1178,0.1746 2.1263,1.5737 2.7513,1.8481 c 0.2707,0.1845 0.5332,0.4212 0.809,0.6206 1.744,1.2608 9.1106,6.5549 9.9036,7.8741 l -0.4699,-0.2978 c 0.6367,0.6723 1.1736,1.3844 1.6826,2.0715 0.2751,0.3714 0.4795,0.7236 0.7769,1.0644 0.1939,0.2222 0.294,0.2487 0.4364,0.4814 0.112,0.1829 0.1931,0.3931 0.3445,0.5465 0.2378,0.1454 0.4723,0.3807 0.8477,0.6062 0.5666,0.3404 2.3235,1.2889 2.5378,1.5907 -0.5414,-0.1092 -0.487,-0.4602 -0.9767,-0.2689 -0.0922,0.2612 0.8003,1.2064 1.0664,1.5703 0.9052,1.2383 2.752,3.906 3.0912,5.0319 l -0.1241,-0.114 c -0.3378,-0.3431 -1.2039,-1.9182 -1.6099,-2.4828 0.3321,0.5075 0.9101,1.8609 1.1828,2.2799 l 0.291,0.5431 c 0.3044,0.5137 0.782,0.6755 0.1978,1.1875 -0.1014,-0.271 -0.2432,-0.612 -0.4137,-0.9254 -0.0726,-0.1337 -0.163,-0.2795 -0.2378,-0.4463 l -0.1443,-0.3435 -0.0592,-0.099 c -0.635,-1.027 -1.2267,-2.2974 -1.961,-3.3622 -0.2984,-0.4327 -0.3985,-0.4844 -0.3872,-0.7581 0.01,-0.2383 0.008,-0.0366 -0.1246,-0.0131 -0.2512,0.0445 0.0434,0.1208 -0.3258,-0.1892 l -0.0987,-0.1096 -0.062,-0.1186 -0.502,-0.3224 c -0.1475,0.2245 1.6477,2.5884 1.8405,3.157 0.1222,0.36 0.1621,0.6751 0.3638,0.9567 0.173,0.2415 0.4403,0.4393 0.5688,0.69 0.6937,1.3534 -0.7701,0.4138 -0.2247,1.7613 l -0.3162,-0.3667 2.7284,3.5941 -0.0212,0.0172 c 0.2518,0.1498 0.3563,0.3156 0.0367,0.5301 l 3.7961,5.559 -1.7827,-3.7234 c 0.1087,-0.146 0.0175,-0.0323 0.1434,-0.0831 2e-4,-1e-4 0.1869,0.3357 0.0117,-0.3687 l -0.2278,0.2462 c -0.0795,-0.4717 -0.3461,-0.3973 -0.2297,-0.7407 l 0.1056,-0.1394 c -0.3033,-0.0546 -0.036,0.3739 -0.3563,-0.1974 l -2.0203,-4.2044 0.4189,-0.0927 c 0.006,-0.0193 0.0386,-0.0117 0.0572,-0.007 0.3542,0.7227 0.6457,1.0896 0.9433,1.9352 l 2.7719,5.7459 0.0577,0.2894 0.0761,0.0838 0.0877,0.2202 -0.0498,-0.0228 0.2212,0.3746 0.083,0.1523 2.1509,4.9889 -0.2581,-0.2179 0.0754,1.0459 -3.7182,0.4497 -0.8576,0.0266 -0.1228,0.0613 c -0.0372,0.0118 -0.0647,0.0211 -0.0843,0.0282 -0.0173,0.003 -0.0369,0.006 -0.0592,0.01 l -1.004,0.0608 1.1815,1.0039 c 0.1378,0.1042 0.2894,0.2421 0.3981,0.3495 0.4423,0.4374 1.0955,0.8051 1.6574,1.366 -0.0608,0.0597 -0.1189,0.1112 -0.158,0.1829 l -0.104,0.4541 c -0.0658,0.2205 0.041,0.0435 -0.104,0.1933 -0.0774,0.2686 -0.2963,0.4924 -0.5455,0.6624 -0.3581,0.2445 -0.3739,0.3052 -0.6506,0.5256 -1.5586,1.2423 -3.5617,2.0235 -4.3673,2.7095 0.3152,0.25 1.9821,0.6105 2.5678,0.7461 0.4457,0.1031 0.3572,0.2373 0.7723,0.2869 0.2933,0.0733 0.5436,0.1861 0.7973,0.2474 l 2.0718,0.7564 c 0.015,-2e-4 0.0288,-3e-4 0.0413,-4e-4 -0.003,-0.005 0.0152,-0.0125 0.0715,-0.0245 0.0163,-0.003 0.102,-0.041 0.1265,-0.0551 l 1.005,-2.7796 0.1918,0.0575 -0.976,3.0563 c 0.4581,0.4145 0.6381,0.1483 1.3875,0.8231 0.1019,0.0917 0.1234,0.0252 0.3496,0.115 -0.4474,0.261 -1.1096,-0.2369 -1.719,-0.3327 -0.1945,0.4895 -0.148,0.5851 -0.5002,0.8902 l -0.1407,0.2485 0.1801,0.1564 c 0.2922,0.013 0.8937,-0.2669 1.5755,0.4936 z"/>
	<path
		id="path16"
		style="fill:#fff;fill-rule:evenodd"
		d="m 273.909,339.3482 c 0.6162,1.1789 0.9241,2.5934 0.9241,4.2437 0,9.9015 -6.9299,18.3887 -20.7899,25.4611 -3.0801,-0.4714 -4.6199,-1.4145 -4.6199,-2.829 0,-1.8859 0.616,-2.8289 1.8479,-2.8289 0.616,-1.4145 0.9241,-2.829 0.9241,-4.2435 0,-2.5934 -1.1551,-5.7759 -3.4653,-9.5479 -2.3097,-3.7721 -3.4648,-6.9548 -3.4648,-9.548 0,-2.8292 1.2322,-5.4813 3.6961,-7.9568 2.4641,-2.4752 5.5437,-3.7131 9.2401,-3.7131 8.0075,0 13.2437,3.6541 15.7076,10.9624 z"/>
</svg>